<svg xmlns="http://www.w3.org/2000/svg" version="1.1" xmlns:xlink="http://www.w3.org/1999/xlink" xmlns:svgjs="http://svgjs.dev/svgjs" width="1500" height="1500" viewBox="0 0 1500 1500"><g transform="matrix(1,0,0,1,-0.323615160350073,-0.3236151603499593)"><svg viewBox="0 0 343 343" data-background-color="#f4efec" preserveAspectRatio="xMidYMid meet" height="1500" width="1500" xmlns="http://www.w3.org/2000/svg" xmlns:xlink="http://www.w3.org/1999/xlink"><g id="tight-bounds" transform="matrix(1,0,0,1,0.0740000000000407,0.07400000000001228)"><svg viewBox="0 0 342.85155851775386 342.85155851775386" height="342.85155851775386" width="342.85155851775386"><g><svg></svg></g><g><svg viewBox="0 0 342.85155851775386 342.85155851775386" height="342.85155851775386" width="342.85155851775386"><g><path d="M0 171.426c0-94.676 76.75-171.426 171.426-171.426 94.676 0 171.426 76.75 171.426 171.426 0 94.676-76.75 171.426-171.426 171.426-94.676 0-171.426-76.75-171.426-171.426zM171.426 329.99c87.573 0 158.564-70.992 158.564-158.564 0-87.573-70.992-158.564-158.564-158.564-87.573 0-158.564 70.992-158.564 158.564 0 87.573 70.992 158.564 158.564 158.564z" data-fill-palette-color="tertiary" fill="#5201fe" stroke="transparent"></path><ellipse rx="164.56874808852186" ry="164.56874808852186" cx="171.42577925887693" cy="171.42577925887693" fill="#5201fe" stroke="transparent" stroke-width="0" fill-opacity="1" data-fill-palette-color="tertiary"></ellipse></g><g transform="matrix(1,0,0,1,64.84655864529837,100.11515414587298)"><svg viewBox="0 0 213.1584412271571 142.6212502260079" height="142.6212502260079" width="213.1584412271571"><g><svg viewBox="0 0 213.1584412271571 142.6212502260079" height="142.6212502260079" width="213.1584412271571"><g><svg viewBox="0 0 213.1584412271571 142.6212502260079" height="142.6212502260079" width="213.1584412271571"><g><svg viewBox="0 0 213.1584412271571 142.6212502260079" height="142.6212502260079" width="213.1584412271571"><g id="textblocktransform"><svg viewBox="0 0 213.1584412271571 142.6212502260079" height="142.6212502260079" width="213.1584412271571" id="textblock"><g><svg viewBox="0 0 213.1584412271571 142.6212502260079" height="142.6212502260079" width="213.1584412271571"><g transform="matrix(1,0,0,1,0,0)"><svg width="213.1584412271571" viewBox="5.88 -34.58 51.669999999999995 34.58" height="142.6212502260079" data-palette-color="#f4efec"><path d="M27.13-29.45L12.88-29.45 12.88-19.38 25.45-19.38 25.45-14.25 12.88-14.25 12.88 0 5.88 0 5.88-34.58 27.88-34.58 27.13-29.45ZM56.8 0L35.3 0 35.3-34.58 42.3-34.58 42.3-5.68 57.55-5.68 56.8 0Z" opacity="1" transform="matrix(1,0,0,1,0,0)" fill="#f4efec" class="wordmark-text-0" data-fill-palette-color="quaternary" id="text-0"></path></svg></g></svg></g></svg></g></svg></g></svg></g></svg></g></svg></g></svg></g><defs></defs></svg><rect width="342.85155851775386" height="342.85155851775386" fill="none" stroke="none" visibility="hidden"></rect></g></svg></g></svg>